<?xml version="1.0" encoding="utf-8"?>
<!-- Generator: Adobe Illustrator 22.0.1, SVG Export Plug-In . SVG Version: 6.00 Build 0)  -->
<svg version="1.1" id="Layer_1" xmlns="http://www.w3.org/2000/svg" xmlns:xlink="http://www.w3.org/1999/xlink" x="0px" y="0px"
	 viewBox="0 0 450 100" style="enable-background:new 0 0 450 100;" xml:space="preserve">
<style type="text/css">
	.st0{fill:#FFFFFF;}
</style>
<path class="st0" d="M232.9,92.8l5.9-14.1l-16-38.7h11l10.5,26.3h0.4L255,40h10.2l-22.1,52.8H232.9z M329.8,69.2c0,2,1,3,2.7,3
	c1.1,0,2.2-0.3,3.2-0.8V77c-2,1.7-4.6,2.5-7.2,2.4c-4.4,0-7.2-2.5-8.1-6.7c-2.2,4.5-7.4,6.8-13.1,6.8c-8,0-12.9-4-12.9-10.6
	c0-7.3,5.9-10.4,14.7-12.1l10.6-2.1v-0.9c0-4.3-2.3-6.9-6.7-6.9s-6.7,2.6-7.6,6.4l-9.5-0.9c1.3-7.9,7.3-13.4,17.5-13.4
	c10,0,16.5,4.7,16.5,14.8V69.2z M319.6,60.9l-7.2,1.6c-4.5,1-7.8,1.7-7.8,5.6c0,2.6,2,4.2,5.3,4.2c5.5,0,9.7-4.2,9.7-10.4V60.9z
	 M373.6,47.3h-5.5v-6.2l2.6-0.4c3.8-0.6,4.8-2.5,5.7-6.1l1.2-5.2h6.4V40h10.5v7.3H384v19c0,3.3,1.5,4.8,4.6,4.8
	c2.3-0.1,4.5-0.8,6.5-1.8v6.9c-3.1,2.3-6.8,3.5-10.7,3.3c-5.9,0-10.9-2.6-10.9-10.8L373.6,47.3z M410.3,78.5h-10.4v-55h10.5v22.8
	c1.9-4.4,6.8-7.3,12.6-7.3c10.3,0,14,7,14,15.5v24h-10.4V56.6c0-5.9-2.4-9.3-7.5-9.3c-5.3,0-8.6,4.2-8.6,10.6L410.3,78.5z M144,58.9
	c0.6,8.2,6.6,12,14.3,12c6.8,0,11.2-2.7,11.2-7.3c0-4.2-3.3-5.8-9.1-6.9l-10.5-1.9c-8.6-1.6-14.5-6.3-14.5-15.4
	c0-10.3,8.1-16.9,21-16.9c14.4,0,22.5,7.4,22.7,19.6H169C168.6,35,163.8,31,156.3,31c-6.5,0-10.1,2.9-10.1,7.6c0,4,2.9,5.4,7.9,6.4
	l10.1,1.8C175,48.8,180,54,180,62.9c0,10.8-9.3,16.7-21.7,16.7c-14.1,0-24.4-7.3-24.4-20.6H144z M223,65.9
	c-2,8.5-8.6,13.6-18.5,13.6c-11.9,0-20.4-7.6-20.4-19.7S192.7,39,204.2,39c12.6,0,19,8.7,19,19.2V62h-28.9c0.3,5.5,4.9,9.9,10.5,9.7
	c5.1,0,7.8-2,9.4-5.7L223,65.9z M213,55.4c-0.4-4.5-3.1-8.7-8.9-8.7s-8.6,3.9-9.6,8.7H213z M267.1,47.4V40h5.7v-3.2
	c0-9,5.4-14.3,14.1-14.3c7,0,11.3,3.3,12.9,9.4l-6.7,2.2c-0.9-2.5-2.5-4.1-5.2-4.1c-3.2,0-4.6,2.5-4.6,6v4h10.3v7.3h-10.3v31.2
	h-10.4V47.3L267.1,47.4z M365.3,50.4c-1.9-1.1-4.1-1.7-6.3-1.7c-5.4,0-9.1,3.9-9.1,10.8v19h-10.5V40h10.5v7.3
	c1.4-4.4,5.4-8.4,10.7-8.4c1.6-0.1,3.2,0.3,4.6,1L365.3,50.4z M57.2,3.9c10.6,3.7,18.5,12.5,21.2,23.4h25.3
	c-5-14.8-23.1-30.1-46.5-23.8c-0.1,0-0.2,0.2-0.2,0.3C57.1,3.8,57.1,3.9,57.2,3.9z M44,4.2c-17.1,0.1-30.9,14-30.9,31.1
	c0.1,17.1,14,30.9,31.1,30.9h21.1c0.1,0,0.2-0.1,0.2-0.3c0-0.1-0.1-0.2-0.2-0.2c-9.4-1.2-23.8-10.9-23.8-28.2
	c0-12.5,8.2-23.6,20.1-27.4c0.1,0,0.2-0.2,0.2-0.3c0,0,0-0.1-0.1-0.1C56.6,6.1,50.4,4.2,44,4.2L44,4.2z M61.7,90.1
	C53,89.8,45.5,84.2,42.6,76H14.1c6.4,23.2,34.3,27.6,47.8,14.5c0.1-0.1,0.1-0.2,0.1-0.3C61.9,90.1,61.8,90.1,61.7,90.1L61.7,90.1z
	 M51.3,36.9c-0.1,0-0.2,0.1-0.2,0.3c0,0.1,0.1,0.2,0.2,0.2c6.2,1.5,24.6,10,24.6,31c0,11.4-6.1,21.9-16.1,27.5
	c-0.1,0.1-0.1,0.2-0.1,0.3c0,0,0,0.1,0.1,0.1c15.4,8.1,34.4,2.3,42.5-13.1c8.1-15.4,2.3-34.4-13.1-42.5c-4.7-2.5-9.8-3.7-15.1-3.7
	L51.3,36.9z"/>
</svg>
